<svg width="216" height="205" viewBox="0 0 216 205" fill="none" xmlns="http://www.w3.org/2000/svg">
<g clip-path="url(#clip0_1062_20)">
<path d="M61.5702 123.88C61.5702 119.618 59.0272 117.001 55.6938 114.982C54.3021 114.138 52.9504 113.438 53.42 111.459L53.3857 111.476C54.8118 111.964 54.7202 110.541 55.1555 109.944C56.4441 108.177 56.2666 105.728 54.577 104.471C53.3456 103.553 53.6148 103.048 54.4911 102.239C54.8347 101.924 55.3559 101.505 54.9665 100.983C54.5655 100.443 54.1073 101.086 53.7408 101.092C52.412 101.12 51.3581 100.099 50.1611 99.6345C49.1703 99.2444 48.0534 98.6936 47.0396 98.1313C45.6765 97.374 44.5138 96.5593 44.0041 94.8496C43.4714 93.0595 41.988 91.7744 40.5332 90.6097C39.5424 89.8122 39.4507 88.9459 40.1953 88.0279C42.3087 85.4117 42.9445 84.6486 38.5973 83.2315C39.8517 82.3709 38.6088 79.7662 41.4439 79.9727C40.5561 79.5023 39.76 79.4277 39.5023 79.8063C38.2594 81.6652 36.5985 80.2596 35.1666 80.4489C34.5079 80.535 33.6603 78.1482 34.2559 77.7294C35.2697 77.0237 34.5423 76.3353 34.4507 75.7041C34.2903 74.5911 33.4254 75.4575 32.8985 75.2968C31.4781 74.8665 29.8859 76.6451 28.5571 74.9583C28.6144 73.5699 30.2009 74.5452 30.5617 73.6158C29.7599 73.3232 28.9637 74.1436 28.1447 73.7018C27.7839 74.0403 28.0645 72.606 27.2856 73.4666C26.4895 74.3559 25.3841 74.6083 24.2844 73.4264C23.242 72.3077 22.3313 70.6266 20.2752 71.3667C18.4653 68.8136 14.5076 70.6897 12.8524 67.7637C12.6405 67.385 9.2899 68.2227 9.19826 68.6702C8.9577 69.7832 8.0814 69.3013 7.48002 69.3587C7.09628 69.3988 6.38034 69.6398 6.3918 68.7907C6.42043 65.7958 4.45018 64.8319 1.95874 64.3672C1.68382 64.3156 1.42035 64.2353 0.612781 64.0287C2.65749 63.0419 4.42727 62.8985 6.15124 62.6862C6.60944 62.6288 7.102 63.0017 7.3311 62.2846C7.53156 61.6535 7.26237 60.9363 6.85572 60.8101C5.91642 60.5175 4.98284 59.1577 3.86026 60.5462C3.6827 60.7642 2.6403 59.5421 2.74913 59.02C2.83504 58.607 3.19587 60.0987 2.83504 58.0332C4.18672 58.1939 5.49831 58.6299 7.04473 58.366C5.55559 58.2111 4.38146 56.9374 2.8694 57.7636C2.65749 57.7349 2.3482 57.7865 2.25084 57.666C1.66664 56.9374 -0.0573326 58.911 -5.78798e-05 56.6677C0.0400344 55.0613 -0.366616 53.3917 1.82128 52.7147C3.15005 52.3074 4.34709 51.1599 5.65295 51.0739C7.68048 50.9419 9.5419 50.3739 11.4492 49.8461C11.9589 49.7026 11.9818 50.4198 12.1765 50.4083C12.8066 50.3682 13.5282 52.5828 14.1239 50.3051C14.2957 49.6395 15.2923 49.9264 15.8593 50.1215C17.3484 50.6378 18.5111 50.9017 18.093 48.5896C17.9785 47.9757 18.7517 47.3446 19.1297 47.488C20.6532 48.0618 21.8101 47.1495 23.1275 46.8168C25.4643 46.2201 26.4036 48.1765 27.7209 49.4904C28.8721 50.6378 29.6052 52.0836 30.6247 53.3229C31.501 54.3843 31.8447 53.7647 32.4002 53.363C33.1391 52.8237 33.7806 52.1295 34.5538 51.6591C35.516 51.0739 36.5756 50.46 37.6466 51.4984C39.3247 53.1221 40.4588 51.223 41.8162 50.8558C42.6868 50.6206 43.7693 48.9396 44.0442 51.3837C44.1186 52.0435 44.8747 52.1525 45.4417 52.0836C47.1714 51.8771 48.8381 51.3033 50.6938 51.3206C48.4486 49.9493 48.2309 48.1306 48.2367 45.7496C48.2539 42.29 48.42 38.4919 45.1897 35.9618C44.0957 35.1069 44.0213 33.6898 43.9124 32.7202C43.7635 31.3834 44.3134 30.1613 42.8529 29.0713C42.3087 28.6639 43.2538 28.4918 43.7005 28.6295C44.6398 28.9163 45.6135 29.1516 46.4898 29.5876C47.6467 30.1613 48.6319 30.081 49.6514 29.318C50.4647 28.7098 51.4269 28.7901 52.3261 29.054C53.1108 29.2778 53.4544 29.9376 53.1852 30.7121C52.9733 31.3203 51.8965 31.5842 52.4177 32.4964C53.1451 33.7759 54.199 34.8545 54.64 36.3117C54.7488 36.6732 55.0123 36.4265 55.1956 36.1511C55.9688 35.0209 57.2059 35.2217 58.0822 35.6347C59.915 36.4953 61.7879 36.4035 63.6951 36.4667C64.6688 36.5011 65.8028 36.5527 66.576 37.0461C68.7868 38.4403 70.8544 37.7289 72.5383 36.4781C74.0332 35.3708 75.5682 34.7397 77.7045 34.3897C77.189 34.3152 77.0802 34.3094 76.9771 34.2865C75.6827 33.9767 73.9587 34.7799 73.2256 33.0071C72.8247 32.0374 75.0355 28.9508 76.1867 28.2336C79.8237 25.9731 83.8844 25.124 87.9567 24.097C90.6257 23.4257 92.9968 21.7677 94.3142 19.1457C94.8697 18.0384 95.6487 18.1818 96.6968 18.3367C94.7323 17.0114 95.431 15.1583 95.6773 13.6264C96.1298 10.7692 95.3737 7.9063 95.9579 5.09502C96.2615 3.63774 97.6075 2.89189 98.7129 2.56486C102.315 1.49772 105.992 0.551065 109.704 0.0060205C111.107 -0.200523 111.204 1.73295 111.336 2.87468C111.502 4.33769 113.77 7.25225 115.139 7.68828C115.867 7.91778 115.941 7.40716 116.313 7.14898C118.719 5.46794 119.876 5.86382 120.913 8.88738C121.434 10.4078 121.056 13.1732 124.423 11.8478C125.122 11.5724 127.574 12.2839 127.23 14.6247C127.092 15.5599 127.178 15.9099 128.622 15.5255C130.695 14.9747 133.106 15.1238 134.928 16.954C135.3 17.3327 135.197 17.5048 135.019 17.8032C134.475 18.7097 134.212 19.5244 135.254 20.362C135.787 20.7866 135.506 21.257 134.939 21.7045C133.983 22.4561 134.601 23.3339 135.386 23.3282C137.299 23.311 139.229 24.5388 141.176 23.093C141.852 22.5881 142.751 22.5365 142.66 21.4005C142.591 20.5227 143.507 20.3333 143.914 19.7768C144.241 19.335 144.767 19.2146 145.243 19.5703C145.758 19.9604 145.26 20.3104 145.128 20.6718C144.659 21.9455 143.84 23.2192 145.38 24.4011C145.753 24.6879 145.203 25.2043 145.237 25.5944C145.306 26.3288 144.934 27.5968 146.503 26.9829C147.11 26.7476 147.431 27.2238 147.826 27.4705C149.693 28.6237 151.537 29.8056 153.393 30.976C153.45 31.0162 153.53 31.0621 153.548 31.1195C154.218 33.6209 155.73 32.9554 157.442 32.3128C159.201 31.6588 160.495 33.0931 161.915 33.7873C162.305 33.9767 162.706 34.3611 163.055 34.1373C164.842 32.9726 166.572 33.6267 168.439 33.9308C169.774 34.1488 170.827 34.7627 171.011 35.7323C171.32 37.3273 172.569 38.1534 173.233 39.4156C173.691 40.282 174.264 41.0909 175.318 39.6623C176.034 38.6927 177.328 39.2665 177.872 40.0353C179.195 41.9056 180.999 41.286 182.38 40.7524C183.703 40.2418 184.407 39.8058 185.312 41.2745C185.896 42.2212 187.071 42.7834 188.233 42.6687C190.908 42.399 193.199 43.3572 195.513 44.6481C194.43 46.0996 194.029 47.861 192.334 49.0429C189.843 50.7813 189.207 53.8335 188.594 56.6104C188.239 58.2283 187.678 59.6626 186.927 61.0797C186.309 62.2444 185.868 63.3919 186.469 64.7401C187.059 66.0655 185.868 67.1269 185.765 68.3891C185.639 69.9037 185.175 71.2635 185.782 72.9101C186.211 74.069 185.032 75.3829 183.909 76.209C182.878 76.9664 181.578 77.236 180.558 76.5934C178.015 74.9927 178.073 74.8952 176.354 77.236C176.148 77.5171 175.988 77.8212 175.701 78.2802C176.566 78.3261 177.236 78.3605 178.296 78.4179C176.996 80.0588 176.085 81.7972 174.665 82.8471C172.992 84.0806 172.196 86.4444 169.739 86.7083C169.275 86.76 168.92 87.3337 169.052 88.0738C169.373 89.8696 168.76 91.2752 167.087 92.1989C165.111 93.2948 164.017 95.0561 163.582 97.2478C163.468 97.8272 163.651 98.2805 163.966 98.8198C164.733 100.139 164.436 101.373 162.987 102.021C162.213 102.371 161.692 102.761 161.996 103.593C162.345 104.557 163.09 103.742 163.651 103.806C164.905 103.955 165.444 102.756 166.389 102.308C166.749 102.136 166.692 101.878 166.297 101.539C164.888 100.317 166.034 99.3247 166.961 98.9116C168.473 98.2346 169.985 97.2133 171.795 97.5805C172.912 97.81 174.413 97.0814 174.293 99.6288C174.241 100.719 174.367 102.107 174.419 103.381C174.447 104.167 175.518 105.028 176.286 105.659C178.605 107.558 178.479 109.176 175.81 110.444C175.146 110.759 174.189 110.748 174.298 111.895C174.384 112.813 174.693 113.656 175.587 113.949C176.767 114.339 177.082 115.154 177.122 116.244C177.145 116.835 177.368 117.466 177.901 117.696C180.215 118.694 179.699 120.536 179.35 122.331C179.298 122.589 179.132 123.014 178.972 123.037C177.088 123.289 176.057 125.584 173.852 125.125C173.187 124.988 172.231 125.166 171.979 125.866C171.721 126.577 172.024 127.42 172.895 127.724C173.559 127.954 173.451 128.493 173.491 128.952C173.64 130.49 174.545 131.253 175.994 131.31C176.773 131.339 177.626 131.379 177.546 132.268C177.466 133.14 178.456 133.835 177.357 135.062C176.498 136.026 174.321 137.552 176.005 139.784C176.458 140.381 175.73 141.419 176.331 142.372C178.118 145.183 182.397 146.99 185.713 146.21C186.246 146.084 187.019 145.292 187.397 146.061C187.746 146.778 188.497 147.621 187.638 148.614C187.191 149.125 187.013 149.813 186.406 150.301C185.736 150.84 184.751 151.586 184.997 152.492C185.524 154.466 184.207 154.696 182.952 155.252C181.498 155.895 179.533 155.981 179.293 158.207C179.235 158.746 178.588 158.671 178.239 158.746C177.202 158.976 176.435 159.326 176.286 160.542C176.223 161.035 175.719 161.534 175.243 161.5C173.743 161.385 173.164 162.418 172.637 163.474C172.443 163.864 170.53 164.328 172.551 164.954C172.614 164.971 172.729 166.537 171.469 166.75C170.169 166.973 168.766 167.88 167.763 167.943C166.005 168.058 164.344 169.635 162.528 168.517C161.847 168.098 161.4 167.954 160.89 168.798C160.713 169.096 159.945 169.785 159.498 168.941C158.307 166.675 156.073 166.428 153.966 166.067C153.009 165.906 152.511 165.86 152.648 164.678C152.792 163.462 152.534 162.688 150.827 163.238C149.458 163.68 147.797 163.956 146.887 161.896C146.331 160.639 145.438 161.362 145.151 162.297C144.979 162.854 145.105 163.629 144.269 163.158C143.261 162.59 141.537 163.887 141.199 162.326C140.89 160.903 140.14 160.852 139.114 160.823C138.043 160.794 136.972 160.783 135.907 160.754C135.317 160.737 134.51 160.616 134.389 160.14C133.736 157.604 132.081 158.597 131.107 159.435C129.275 161.024 126.949 161.953 125.386 163.864C125.128 164.179 124.905 164.541 124.406 164.621C120.042 165.35 118.089 167.868 117.883 172.573C117.82 174.065 117.688 175.562 117.677 177.06C117.665 178.448 117.367 179.917 118.925 180.84C119.12 180.955 119.733 181.609 119.234 182.114C118.914 182.441 118.484 182.246 118.06 182.085C116.113 181.351 113.381 182.172 112.115 183.778C111.25 184.88 110.002 184.616 109.171 184.053C107.19 182.722 105.408 181.781 103.301 183.824C102.751 184.357 102.006 184.019 101.508 183.296C100.036 181.179 98.5124 180.818 96.1928 181.931C94.8354 182.579 93.5467 183.239 93.8044 180.64C93.856 180.146 93.6899 179.429 93.5868 178.827C93.4436 177.983 93.0713 176.847 92.2637 176.767C89.0277 176.451 86.3988 174.472 83.3289 173.761C81.5648 173.353 81.708 174.805 81.9256 175.568C82.3609 177.1 81.645 177.14 80.574 176.985C78.7584 176.721 76.8167 177.49 75.11 176.331C72.103 177.96 70.3046 175.671 68.237 174.22C67.7387 173.87 67.1602 174.013 66.5875 174.179C63.7524 174.988 62.5611 174.592 60.9688 172.206C60.5908 171.644 60.4763 171.265 59.5828 171.362C56.9768 171.655 54.8691 170.072 52.7213 168.964C52.0168 168.603 51.9824 168.127 51.7476 169.125C51.5815 169.836 51.1634 169.853 50.6365 169.572C50.1668 169.32 49.8919 169.01 50.0695 168.373C50.9286 165.298 50.8713 165.464 48.0305 164.885C47.4234 164.759 46.2951 164.277 45.665 163.531C45.2355 163.026 45.224 162.693 45.9171 162.441C48.798 161.397 49.6628 158.717 50.2356 156.239C51.3467 151.454 51.9538 146.554 52.8301 141.712C53.1337 140.048 52.7098 138.304 53.6148 136.68C54.0386 135.917 54.1589 135.292 55.2013 135.762C55.5907 135.94 56.2437 135.774 56.238 135.321C56.2265 134.689 55.7511 134.156 55.2013 133.783C54.8691 133.559 54.5197 133.163 54.1589 133.76C53.8324 134.294 53.3341 134.73 53.0478 135.372C53.7179 129.147 54.3823 122.922 55.0524 116.697C55.2586 116.714 55.459 116.732 55.6652 116.749C56.9539 119.291 60.2128 121.201 60.4534 124.557C61.0261 125.435 61.5473 125.332 61.9024 126.296C62.1258 126.646 62.6871 126.824 62.1773 126.508C62.0628 126.433 62.0112 126.399 61.9482 126.284C61.5359 125.527 61.4557 124.718 61.5473 123.875L61.5702 123.88Z" fill="#579FDB"/>
<path d="M206.017 198.327C205.53 198.081 205.238 197.874 204.906 197.771C203.463 197.329 202.678 196.79 203.926 195.195C204.459 194.512 205.02 193.192 202.993 193.451C201.842 193.594 201.183 193.313 202.317 192.068C203.308 190.978 204.018 189.888 201.905 188.918C200.553 188.293 200.954 186.681 202.598 185.757C202.076 185.103 201.561 184.466 201.04 183.823C202.603 182.888 202.18 180.588 203.697 179.744C204.894 179.079 205.862 177.885 207.443 177.954C208.09 177.983 208.348 177.375 208.686 176.904C209.322 176.021 210.261 175.774 211.114 176.399C213.171 177.902 212.844 175.699 212.684 175.194C212.214 173.783 212.833 172.532 212.856 171.219C212.861 170.748 212.964 170.341 213.508 170.301C214.116 170.255 214.488 170.645 214.499 171.196C214.534 172.67 215.387 174.11 214.706 175.619C213.726 177.782 215.57 179.526 215.605 181.551C215.639 183.68 216.338 185.952 215.794 187.897C214.814 191.397 213.503 194.753 213.279 198.471C213.159 200.53 211.447 202.194 211.12 204.352C210.925 205.642 209.665 204.673 209.551 204.374C208.984 202.86 207.575 202.762 206.424 202.2C204.012 201.012 203.881 200.146 206.011 198.333L206.017 198.327Z" fill="#579FDB"/>
<path d="M53.42 111.459C53.0363 110.42 52.7957 109.348 51.6559 108.728C50.9171 108.326 50.9916 107.403 50.9114 106.588C53.8782 108.005 54.4338 109.13 53.3914 111.476L53.42 111.459Z" fill="#579FDB"/>
<path d="M39.4794 38.354C40.2411 38.5204 41.2262 38.377 41.3981 39.4843C41.4782 40.0006 40.8769 40.3678 40.6077 40.0695C39.9605 39.3523 38.4541 40.7063 38.3224 39.031C38.2365 37.9811 39.0956 38.6237 39.4794 38.354Z" fill="#579FDB"/>
<path d="M33.9181 33.1328C33.7692 33.9934 33.9639 35.0892 32.6695 34.9458C32.4404 34.9229 32.0452 34.636 32.0566 34.5098C32.1712 33.4369 33.1792 33.4598 33.9123 33.1385L33.9181 33.1328Z" fill="#579FDB"/>
</g>
<defs>
<clipPath id="clip0_1062_20">
<rect width="216" height="205" fill="white"/>
</clipPath>
</defs>
</svg>
