<svg width="185" height="115" viewBox="0 0 185 115" fill="none" xmlns="http://www.w3.org/2000/svg">
<path d="M64.5989 98.9022C63.5323 97.591 62.3936 96.3481 61.4409 94.9763C60.1465 93.1118 59.0951 91.0769 57.7628 89.239C56.1003 86.9463 53.9974 85.0667 51.124 84.4907C49.0971 84.0852 46.9677 83.7518 45.5898 86.0899C45.3735 86.4575 44.36 86.5295 43.7451 86.4651C36.8748 85.745 30.7523 83.1796 25.6242 78.5715C23.9959 77.1088 22.3029 76.3016 20.2305 76.3471C18.5186 76.3812 17.1256 76.1311 16.0058 75.3656C14.628 74.4258 14.07 73.0085 13.7094 72.1483C12.8667 70.1361 10.9119 67.4455 5.93569 64.6792C5.35874 63.9668 4.78179 63.2581 4.20483 62.5457C2.1817 57.1912 1.1986 52.5983 0.682381 49.3924C-0.0122409 45.0875 -0.934607 30.7821 2.23864 21.657C3.4343 18.2161 5.09683 14.9231 6.69105 11.6338C7.29077 10.3908 7.63998 9.30702 7.35151 7.88216C6.95675 5.93815 6.91879 3.92592 6.729 1.94401C6.89602 1.83791 7.06683 1.7318 7.23384 1.6257C8.29285 2.2396 9.34807 2.85349 10.4071 3.46739C12.7491 4.82404 13.6259 4.35414 13.717 1.71285C13.7359 1.22022 13.7929 0.727584 13.8536 0C15.854 0.462319 17.7367 0.882954 19.6118 1.33769C42.1585 6.77184 65.0431 9.40175 88.2237 9.43586C93.3365 9.44344 98.3014 9.96639 103.141 11.6868C105.145 12.3992 107.248 12.8199 109.453 13.4148C109.059 14.3698 108.402 15.23 108.428 16.0675C108.466 17.2877 108.694 18.7277 109.404 19.6448C110.269 20.7665 111.704 20.3269 112.881 19.6637C113.321 19.4136 113.826 19.2204 114.168 18.8679C118.506 14.3925 122.985 16.2304 127.897 18.7618C126.428 19.137 125.293 19.5121 124.124 19.7054C122.826 19.9214 122.135 20.6263 121.793 21.8541C120.366 26.9509 119.827 32.135 120.138 37.4137C120.161 37.7889 120.26 38.1603 120.358 38.5241C121.072 41.0858 122.735 42.4993 124.689 42.215C126.557 41.946 127.65 40.2635 127.661 37.5653C127.673 34.4731 127.639 31.3771 127.65 28.2811C127.658 26.5985 128.656 25.8255 130.668 25.8444C132.459 25.8596 132.664 27.0533 132.63 28.4326C132.622 28.7472 132.474 29.0806 132.543 29.3686C132.695 29.9939 132.774 30.8693 133.203 31.1345C133.644 31.4112 134.482 31.1687 135.101 30.9981C135.667 30.839 136.172 30.4676 137.265 29.903C137.17 31.6007 137.299 32.855 136.984 33.988C136.574 35.4735 135.659 36.2276 135.219 38.1603C135.029 38.9902 134.987 39.695 134.98 40.1611C135.583 40.4226 136.191 40.6803 136.794 40.9418C147.449 35.6971 150.614 33.412 151.001 32.4002C151.062 32.2487 151.328 31.4491 152.076 30.8882C152.489 30.5775 153.009 30.3956 153.712 30.3009C157.052 29.8499 159.367 27.2958 159.971 24.105C160.142 23.2069 160.76 22.1648 161.497 21.657C162.715 20.8157 164.161 20.2397 165.581 19.7585C167.133 19.2355 168.785 19.0233 170.36 18.5496C173.165 17.7083 175.275 16.0713 176.338 13.2064C177.26 10.7243 178.323 8.29522 179.333 5.84341C179.375 5.74488 179.519 5.68804 179.963 5.34699C180.684 8.70448 182.18 11.5201 185 13.5588C184.666 13.9454 184.514 14.2751 184.271 14.3736C181.428 15.5332 179.917 18.1214 178.084 20.289C175.86 22.9227 175.67 26.0718 177.021 29.2019C177.473 30.244 177.26 30.7783 176.634 31.6651C174.71 34.3784 171.806 35.6706 169.092 37.2394C167.771 38.0011 167.118 38.8234 167.589 40.434C168.143 42.3325 167.798 44.1553 166.761 45.8871C166.393 46.501 166.352 47.3119 166.181 48.0395C165.683 50.101 164.856 52.1549 164.799 54.2278C164.738 56.4825 165.137 58.8396 165.801 61.0072C166.693 63.9175 166.333 66.0093 163.983 67.9761C159.257 71.9285 155.059 76.3622 151.457 81.372C148.948 84.8583 148.697 88.4659 150.546 92.2554C151.18 93.5552 152.045 94.7413 152.729 96.0222C154.433 99.2092 156.213 102.366 157.743 105.636C158.521 107.3 158.798 108.933 158.297 110.669C158.077 111.438 157.697 112.741 156.881 112.927C154.896 113.378 150.778 107.148 149.005 101.032C148.565 99.5161 148.318 97.9813 147.043 96.2571C145.794 94.5746 144.033 93.3013 141.812 92.4449C140.821 92.0621 139.751 91.8386 139.182 93.0512C138.586 94.3169 137.766 94.0744 136.859 93.5779C136.308 93.2748 135.784 92.9072 135.268 92.551C133.385 91.2474 131.431 91.0276 129.377 92.1266C128.455 92.6192 127.57 93.0626 126.686 91.975C126.473 91.7173 125.756 91.5506 125.49 91.7059C123.517 92.8845 121.224 93.8167 119.744 95.4613C116.092 99.5199 117.052 99.2849 112.103 97.7957C107.605 96.4428 103.088 97.1173 98.6809 98.5574C98.3887 98.6521 98.0243 98.8075 97.8876 99.0424C96.6616 101.138 94.9383 102.271 92.4332 102.029C92.2737 102.013 91.9815 102.15 91.9473 102.271C91.3476 104.408 89.2713 105.159 87.9997 106.629C87.4266 107.292 87.6847 108.368 87.6619 110.161C87.6353 112.203 87.7758 113.875 87.9048 115C86.5042 114.432 85.1036 113.859 83.7067 113.291C82.883 111.555 82.0556 109.82 81.2319 108.084L78.7115 102.165C77.2312 98.7317 74.0731 96.4769 70.6721 96.4239C67.3964 96.3746 65.1569 98.3792 64.6141 98.8946L64.5989 98.9022Z" fill="#894545"/>
</svg>
