<svg viewBox="0 0 200 200" xmlns="http://www.w3.org/2000/svg">
    <path
        fill="#FF0066"
        d="M42.3,-73.3C53.9,-66.6,61.8,-53.4,70.6,-40.1C79.4,-26.8,89.1,-13.4,89.2,0.1C89.4,13.6,80.1,27.3,71.7,41.1C63.2,55,55.6,69,43.8,74.9C32,80.7,16,78.4,1.7,75.4C-12.6,72.5,-25.2,69,-38.1,63.8C-51,58.6,-64.1,51.6,-71.5,40.7C-78.9,29.8,-80.5,14.9,-81.1,-0.4C-81.8,-15.6,-81.5,-31.2,-75.3,-44.3C-69.2,-57.4,-57.3,-68,-43.8,-73.6C-30.3,-79.2,-15.1,-79.8,0.1,-80C15.3,-80.2,30.7,-80,42.3,-73.3Z"
        transform="translate(100 100)"></path>
</svg>
