<?xml version="1.0" encoding="UTF-8"?>
<svg id="Layer_2" data-name="Layer 2" xmlns="http://www.w3.org/2000/svg" viewBox="0 0 585.27 185.3">
  <defs>
    <style>
      .cls-1 {
        fill: #446988;
      }

      .cls-1, .cls-2 {
        stroke-width: 0px;
      }

      .cls-2 {
        fill: #e1b901;
      }
    </style>
  </defs>
  <g id="Layer_7" data-name="Layer 7">
    <rect class="cls-2" y="128.82" width="585.27" height="56.48"/>
    <g>
      <path class="cls-1" d="m56.17,1.81c16,0,28.99,12.99,28.99,28.99v7.25l-12.58,12.58c9.48,3.68,16.21,12.89,16.21,23.66v28.99h10.87l-7.25,21.74h-3.62c-12,0-21.74-9.74-21.74-21.74v-28.99c0-2-1.62-3.62-3.62-3.62h-30.8v32.62c0,12-9.74,21.74-21.74,21.74H0l7.25-21.74h3.62v-32.62H0l7.25-21.74h3.62v-18.12l7.25-7.25H0L7.25,1.81h48.92Zm-23.56,54.36l7.25-7.25h23.56v-18.12c0-4-3.25-7.25-7.25-7.25h-23.56v32.62Z"/>
      <path class="cls-1" d="m192.07,1.81l-7.25,21.74h-47.11v32.62l7.25-7.25h43.49l-7.25,21.74h-43.49v23.56l-7.25,7.25h61.61l-7.25,21.74h-79.73l7.25-21.74h3.62v-30.8h-10.87l7.25-21.74h3.62v-19.93L152.21,1.81h39.86Z"/>
      <path class="cls-1" d="m255.49,0c18,0,32.62,14.61,32.62,32.62v68.86l-28.99,21.74h-59.8l7.25-21.74h3.62v-30.8h-10.87l7.25-21.74h3.62v-21.74L246.43,0h9.06Zm-23.56,94.22l-7.25,7.25h41.68V32.62c0-6-4.87-10.87-10.87-10.87h-23.56v72.48Z"/>
      <path class="cls-1" d="m375.08,1.81c12,0,21.74,9.74,21.74,21.74l-21.74,7.25v-7.25h-43.49v61.61c0,10,8.12,18.12,18.12,18.12h27.18v-32.62h-27.18l7.25-21.74h19.93c12,0,21.74,9.74,21.74,21.74v68.86l-21.74,7.25v-28.99l-7.25,7.25h-19.93c-22.01,0-39.86-17.86-39.86-39.86v-14.5h-10.87l7.25-21.74h3.62v-19.93L346.09,1.81h28.99Z"/>
      <path class="cls-1" d="m480.17,1.81l-7.25,21.74h-18.12v70.67l-7.25,7.25h32.62l-7.25,21.74h-61.61l7.25-21.74h14.5v-30.8h-10.87l7.25-21.74h3.62v-18.12l7.25-7.25h-28.99l7.25-21.74h61.61Z"/>
      <path class="cls-1" d="m541.78,1.81c16,0,28.99,12.99,28.99,28.99v7.25l-12.58,12.58c9.48,3.68,16.21,12.89,16.21,23.66v28.99h10.87l-7.25,21.74h-3.62c-12,0-21.74-9.74-21.74-21.74v-28.99c0-2-1.62-3.62-3.62-3.62h-30.8v32.62c0,12-9.74,21.74-21.74,21.74h-10.87l7.25-21.74h3.62v-32.62h-10.87l7.25-21.74h3.62v-18.12l7.25-7.25h-18.12l7.25-21.74h48.92Zm-23.56,54.36l7.25-7.25h23.56v-18.12c0-4-3.25-7.25-7.25-7.25h-23.56v32.62Z"/>
    </g>
  </g>
</svg>